PathFileType	4	(X/Y/Z)	/Users/itak/Documents/Research/Walk-IL/dataset/trc/00333_00011.trc
DataRate	CameraRate	NumFrames	NumMarkers	Units	OrigDataRate	OrigDataStartFrame	OrigNumFrames
100.000000	100.000000	4	54	mm	100.000000	442	506
Frame#	Time	RPSI			LPSI			L3			STRN			T10			C7			CLAV			RBAK			LBAK			LSHO			LUPA			LAEL			LAOL			LWTS			LWPS			LFRA			LIFD			LHPS			LHTS			RSHO			RUPA			RAEL			RAOL			RWTS			RWPS			RFRA			RIFD			RHTS			RHPS			RBHD			LFHD			RFHD			LBHD			LHIP			RHIP			RASI			LASI			LKNE			LTHI			LANK			LTIP			LTOE			LMT5			LHEE			RKNE			RTHI			RANK			RTIP			RTOE			RMT1			RMT5			RHEE			LMT1			*53			
		X1	Y1	Z1	X2	Y2	Z2	X3	Y3	Z3	X4	Y4	Z4	X5	Y5	Z5	X6	Y6	Z6	X7	Y7	Z7	X8	Y8	Z8	X9	Y9	Z9	X10	Y10	Z10	X11	Y11	Z11	X12	Y12	Z12	X13	Y13	Z13	X14	Y14	Z14	X15	Y15	Z15	X16	Y16	Z16	X17	Y17	Z17	X18	Y18	Z18	X19	Y19	Z19	X20	Y20	Z20	X21	Y21	Z21	X22	Y22	Z22	X23	Y23	Z23	X24	Y24	Z24	X25	Y25	Z25	X26	Y26	Z26	X27	Y27	Z27	X28	Y28	Z28	X29	Y29	Z29	X30	Y30	Z30	X31	Y31	Z31	X32	Y32	Z32	X33	Y33	Z33	X34	Y34	Z34	X35	Y35	Z35	X36	Y36	Z36	X37	Y37	Z37	X38	Y38	Z38	X39	Y39	Z39	X40	Y40	Z40	X41	Y41	Z41	X42	Y42	Z42	X43	Y43	Z43	X44	Y44	Z44	X45	Y45	Z45	X46	Y46	Z46	X47	Y47	Z47	X48	Y48	Z48	X49	Y49	Z49	X50	Y50	Z50	X51	Y51	Z51	X52	Y52	Z52	X53	Y53	Z53	X54	Y54	Z54	

443	4.42	-897.2286376953125	985.5925903320312	214.3101348876953	-903.1690673828125	988.4751586914062	86.15943908691406	-902.0567626953125	1042.660888671875	155.6330261230469	-668.6183471679688	1224.599731445312	129.5575408935547	-911.7545776367188	1162.3388671875	147.4241790771484	-867.6077270507812	1409.151245117188	121.2350616455078	-712.400390625	1349.104858398438	122.73828125	-915.87109375	1274.610107421875	197.686279296875	-882.4697265625	1368.470092773438	20.65181159973145	-798.0811157226562	1381.042358398438	-38.41485214233398	-810.3897094726562	1257.421264648438	-100.0590667724609	-774.6126098632812	1054.209106445312	-102.4658889770508	-840.7627563476562	1038.183349609375	-52.08172225952148	-665.3113403320312	822.1376953125	-35.98980331420898	-696.7582397460938	806.1607055664062	-95.37633514404297	-750.433837890625	951.1414794921875	-102.5838851928711	-642.4190063476562	663.1358642578125	-28.39714622497559	-693.5767211914062	735.9761962890625	-86.84105682373047	-643.464599609375	745.9505615234375	-47.96881103515625	-802.773681640625	1400.290405273438	281.8204650878906	-809.750732421875	1337.20849609375	349.6854858398438	-783.567138671875	1071.523803710938	397.26513671875	-836.5650634765625	1057.7939453125	319.6812744140625	-671.8236694335938	846.4326782226562	341.7884826660156	-692.46728515625	833.0220947265625	413.3627319335938	-753.700439453125	1005.140258789062	403.9954833984375	-647.7225952148438	673.7059936523438	356.4340209960938	-635.8189086914062	747.5057373046875	354.9636840820312	-675.1127319335938	748.9375610351562	411.5660705566406	-817.6695556640625	1615.482299804688	195.1488800048828	-651.1355590820312	1620.685668945312	67.45757293701172	-656.96826171875	1625.422241210938	168.6900177001953	-836.4456176757812	1603.466796875	50.82882308959961	-823.1838989257812	929.1050415039062	-21.22792053222656	-818.1395263671875	924.8327026367188	320.2334899902344	-713.1172485351562	950.9813232421875	274.2030334472656	-699.7145385742188	951.7193603515625	33.60023880004883	-799.6942138671875	471.3057861328125	-18.24588775634766	-794.5305786132812	611.053466796875	-23.59866523742676	-866.0159912109375	46.28220367431641	0.1907267421483994	-838.2661743164062	255.8068084716797	-19.45629692077637	-658.1094970703125	46.65357971191406	50.06813430786133	-740.7353515625	49.52769088745117	-19.69174003601074	-898.3665771484375	44.302001953125	69.76808929443359	-828.16650390625	462.0119934082031	291.33935546875	-764.38916015625	716.39501953125	321.261474609375	-892.3524780273438	49.79062652587891	256.8381652832031	-828.3359985351562	345.4557189941406	280.7279357910156	-700.116943359375	48.52387237548828	203.7787017822266	-755.4092407226562	42.92671203613281	162.6419982910156	-790.0423583984375	37.10188293457031	275.5637817382812	-943.8272094726562	51.35526275634766	208.9670715332031	-723.2127685546875	37.69771575927734	93.65785980224609	nan	nan	nan	
444	4.43	-897.5311889648438	985.5885620117188	215.3157501220703	-903.8135375976562	988.4476928710938	87.17173767089844	-902.502197265625	1042.344970703125	156.5101013183594	-669.9766845703125	1224.87255859375	130.1671600341797	-913.00390625	1162.002075195312	148.1591796875	-869.4404907226562	1408.906494140625	121.8331680297852	-714.0599365234375	1349.306396484375	123.3329315185547	-917.2571411132812	1274.272338867188	198.4035949707031	-884.2025146484375	1368.131469726562	21.21890830993652	-799.8394775390625	1380.98193359375	-37.82486343383789	-811.2019653320312	1257.24853515625	-99.36917877197266	-773.280517578125	1054.365478515625	-101.1888885498047	-840.0293579101562	1037.7490234375	-51.72256851196289	-662.4869995117188	823.4912109375	-32.23773574829102	-692.6044311523438	807.1421508789062	-92.23844146728516	-747.9115600585938	951.5188598632812	-100.7251663208008	-637.9193115234375	664.9943237304688	-23.69395446777344	-688.664794921875	737.0054931640625	-83.39095306396484	-638.9296875	748.054443359375	-43.93078231811523	-804.443115234375	1400.315063476562	282.4288330078125	-811.237548828125	1337.264282226562	350.2824401855469	-785.5894775390625	1071.492797851562	397.6794128417969	-838.4674682617188	1057.950073242188	320.0125732421875	-675.2181396484375	845.4603881835938	343.1427612304688	-696.04296875	832.52587890625	414.6369323730469	-756.0655517578125	1004.926147460938	404.4896850585938	-652.8555908203125	672.5050048828125	358.4291687011719	-640.310546875	746.0910034179688	356.5516052246094	-679.514404296875	748.2841796875	413.2349243164062	-819.7553100585938	1615.617065429688	195.6436309814453	-653.2070922851562	1620.70703125	67.91188049316406	-659.0359497070312	1625.462768554688	169.1504058837891	-838.556640625	1603.544921875	51.32564544677734	-824.0809326171875	929.091552734375	-20.38850212097168	-818.2638549804688	924.8610229492188	321.0755615234375	-713.3827514648438	951.106201171875	274.8057250976562	-700.45166015625	951.9266357421875	34.28971862792969	-800.7337036132812	471.4428100585938	-17.75136375427246	-795.49755859375	611.1599731445312	-23.00723648071289	-866.0211791992188	46.35038757324219	0.2774262428283691	-838.9514770507812	255.89404296875	-19.15835762023926	-658.0800170898438	46.59025573730469	50.05868530273438	-740.7096557617188	49.50891494750977	-19.69460487365723	-898.3458251953125	44.29841613769531	69.87107849121094	-828.1635131835938	461.9386596679688	291.6714477539062	-764.4627075195312	716.2759399414062	321.7555236816406	-892.3629760742188	49.77523422241211	256.8606262207031	-828.3768920898438	345.3819885253906	281.0509948730469	-700.1200561523438	48.53630065917969	203.7765502929688	-755.4074096679688	42.92897033691406	162.6456604003906	-790.0442504882812	37.10403060913086	275.56298828125	-943.8220825195312	51.34906768798828	208.9831390380859	-723.1326904296875	37.7426643371582	93.65724182128906	nan	nan	nan	
445	4.44	-897.8038940429688	985.5994873046875	216.3287658691406	-904.4522705078125	988.41455078125	88.18946838378906	-902.8729858398438	1042.030639648438	157.3844604492188	-671.3024291992188	1225.146850585938	130.7193756103516	-914.1925659179688	1161.672973632812	148.8589782714844	-871.23583984375	1408.666015625	122.4021987915039	-715.6851196289062	1349.50390625	123.8851852416992	-918.6123657226562	1273.936401367188	199.0804748535156	-885.90283203125	1367.80908203125	21.75746917724609	-801.5750122070312	1380.939697265625	-37.27128219604492	-812.051025390625	1257.11328125	-98.72296142578125	-772.108642578125	1054.564697265625	-99.99796295166016	-839.3936767578125	1037.370727539062	-51.3778076171875	-659.7833251953125	824.9451293945312	-28.67510032653809	-688.6022338867188	808.21484375	-89.21012878417969	-745.5652465820312	951.9462280273438	-98.96407318115234	-633.4981079101562	666.98583984375	-19.14623260498047	-683.8723754882812	738.1331787109375	-80.01909637451172	-634.4138793945312	750.3431396484375	-40.12442398071289	-806.0751342773438	1400.32177734375	283.0055541992188	-812.7015991210938	1337.286865234375	350.8428039550781	-787.5889892578125	1071.416381835938	398.0186767578125	-840.3383178710938	1058.068969726562	320.2550354003906	-678.5859375	844.4620361328125	344.4419860839844	-699.6004638671875	832.0281372070312	415.8653259277344	-758.3882446289062	1004.688903808594	404.9072265625	-657.9598388671875	671.3179931640625	360.3911437988281	-644.8213500976562	744.6439819335938	358.1139221191406	-683.894775390625	747.6360473632812	414.8672790527344	-821.815673828125	1615.741455078125	196.1193695068359	-655.2763671875	1620.749267578125	68.33306884765625	-661.0902099609375	1625.51513671875	169.5761871337891	-840.66650390625	1603.630737304688	51.80844879150391	-824.9937744140625	929.0672607421875	-19.55347061157227	-818.3526000976562	924.9049682617188	321.9051818847656	-713.6109008789062	951.2284545898438	275.3724670410156	-701.1622924804688	952.1362915039062	34.88991546630859	-801.635986328125	471.5646362304688	-17.28489875793457	-796.3787231445312	611.2603149414062	-22.43080520629883	-866.0257568359375	46.41189193725586	0.3557218611240387	-839.5303344726562	255.963623046875	-18.86816215515137	-658.045166015625	46.5274543762207	50.04785537719727	-740.6822509765625	49.49126052856445	-19.69881820678711	-898.31103515625	44.29434204101562	69.96939086914062	-828.1353759765625	461.8499145507812	291.9737854003906	-764.5188598632812	716.1583862304688	322.2291870117188	-892.3719482421875	49.7567253112793	256.8894348144531	-828.4089965820312	345.2954711914062	281.3571166992188	-700.1251220703125	48.55325698852539	203.7756958007812	-755.3977661132812	42.93056106567383	162.6517944335938	-790.0469970703125	37.10424423217773	275.5630493164062	-943.8171997070312	51.34230422973633	209.0028686523438	-723.0560913085938	37.78561782836914	93.65442657470703	nan	nan	nan	
446	4.45	-898.064453125	985.6035766601562	217.3418426513672	-905.0919799804688	988.3616943359375	89.2060546875	-903.2042236328125	1041.718994140625	158.2520141601562	-672.5919189453125	1225.423828125	131.2186737060547	-915.3068237304688	1161.353759765625	149.5238952636719	-872.989501953125	1408.43115234375	122.9419860839844	-717.2698974609375	1349.697143554688	124.3987426757812	-919.9283447265625	1273.603637695312	199.7157745361328	-887.5621948242188	1367.502319335938	22.26758193969727	-803.2762451171875	1380.912841796875	-36.75213623046875	-812.9284057617188	1257.010009765625	-98.12078094482422	-771.1077880859375	1054.794799804688	-98.89871978759766	-838.870849609375	1037.04443359375	-51.04769515991211	-657.1913452148438	826.51318359375	-25.32880401611328	-684.7716674804688	809.3670654296875	-86.29941558837891	-743.4122314453125	952.4091186523438	-97.30683898925781	-629.157470703125	669.1023559570312	-14.76352310180664	-679.2203979492188	739.3496704101562	-76.73251342773438	-629.973388671875	752.7685546875	-36.54808044433594	-807.66650390625	1400.314453125	283.5527038574219	-814.1435546875	1337.279174804688	351.3713989257812	-789.5755615234375	1071.291748046875	398.2875061035156	-842.1776733398438	1058.155517578125	320.4021301269531	-681.9150390625	843.4520263671875	345.6811828613281	-703.1346435546875	831.5409545898438	417.0443420410156	-760.6768188476562	1004.43798828125	405.2549133300781	-662.9915161132812	670.1682739257812	362.3136291503906	-649.3021240234375	743.2089233398438	359.6626586914062	-688.243408203125	746.999267578125	416.4596862792969	-823.8497314453125	1615.845825195312	196.5792846679688	-657.3436279296875	1620.819091796875	68.72380828857422	-663.130859375	1625.5849609375	169.9692077636719	-842.7738037109375	1603.717529296875	52.27986907958984	-825.9154052734375	929.0279541015625	-18.72487640380859	-818.4168090820312	924.9537353515625	322.7185363769531	-713.8110961914062	951.3495483398438	275.9061279296875	-701.8389892578125	952.3500366210938	35.39653396606445	-802.4147338867188	471.6734924316406	-16.85234832763672	-797.178955078125	611.3547973632812	-21.87417221069336	-866.0276489257812	46.46541213989258	0.4248488545417786	-840.0103149414062	256.0175170898438	-18.58979988098145	-658.0062255859375	46.46569061279297	50.03451156616211	-740.6544799804688	49.47245407104492	-19.70627784729004	-898.2621459960938	44.29028701782227	70.06079864501953	-828.0933837890625	461.7486572265625	292.2551574707031	-764.5441284179688	716.0421142578125	322.6848754882812	-892.3790893554688	49.7337646484375	256.9266967773438	-828.4349365234375	345.2005004882812	281.6479797363281	-700.1320190429688	48.57421493530273	203.7764282226562	-755.38232421875	42.93276977539062	162.6605529785156	-790.0505981445312	37.10201263427734	275.5643920898438	-943.8128662109375	51.33378982543945	209.0283508300781	-722.9863891601562	37.82415390014648	93.64845275878906	nan	nan	nan	
